<?xml version="1.0" standalone="no"?>
<!DOCTYPE svg PUBLIC "-//W3C//DTD SVG 20010904//EN"
 "http://www.w3.org/TR/2001/REC-SVG-20010904/DTD/svg10.dtd">
<svg version="1.0" xmlns="http://www.w3.org/2000/svg"
 width="1000.000000pt" height="1000.000000pt" viewBox="0 0 1000.000000 1000.000000"
 preserveAspectRatio="xMidYMid meet">
<metadata>
Created by potrace 1.14, written by Peter Selinger 2001-2017
</metadata>
<g transform="translate(0.000000,1000.000000) scale(0.100000,-0.100000)"
fill="#000000" stroke="none">
<path d="M5608 7502 c-130 -76 -245 -145 -255 -153 -28 -25 -791 -469 -805
-469 -6 0 -154 83 -327 184 -174 102 -323 187 -331 191 -9 3 -113 -51 -249
-130 -129 -74 -237 -135 -241 -135 -4 0 -93 50 -198 110 -105 61 -193 110
-197 110 -11 0 -1190 -684 -1197 -694 -10 -14 -10 -1448 0 -1462 4 -6 438
-259 965 -563 672 -388 965 -552 980 -549 12 2 274 150 582 328 308 177 565
323 570 323 6 0 102 -52 215 -117 113 -64 213 -116 222 -116 9 0 102 49 207
110 105 60 193 110 196 110 2 0 6 -104 7 -231 l3 -232 240 -138 c140 -82 246
-137 255 -134 27 10 1184 678 1200 692 20 19 29 340 35 1271 l5 722 33 16 c32
15 33 15 135 -43 l102 -58 0 -165 c0 -114 4 -170 12 -178 6 -6 166 -100 355
-209 274 -158 340 -200 327 -208 -9 -5 -36 -22 -60 -37 l-44 -28 0 -195 0
-195 38 -23 c82 -52 340 -197 350 -197 15 0 495 279 504 293 4 7 8 94 8 195 0
182 0 183 -25 206 -25 23 -25 25 -25 185 l0 161 -39 27 c-21 16 -192 116 -379
223 l-341 195 -1 161 c0 139 -2 165 -17 182 -22 25 -555 332 -576 332 -8 0
-78 -36 -155 -80 l-139 -81 -509 294 c-280 161 -519 299 -532 306 -21 11 -37
5 -165 -70 -78 -45 -146 -82 -152 -82 -5 1 -81 42 -167 92 -86 50 -163 91
-170 90 -7 0 -120 -62 -250 -137z m361 -22 c58 -32 115 -65 125 -73 19 -14 19
-15 -10 -30 -28 -15 -31 -14 -151 56 -68 39 -123 74 -123 77 0 6 36 27 49 29
2 1 52 -26 110 -59z m938 -201 c230 -133 449 -259 487 -281 l68 -40 -101 -60
-101 -59 -473 272 c-259 150 -478 277 -485 282 -9 7 13 25 85 68 54 32 99 58
100 58 1 1 190 -108 420 -240z m-975 46 c75 -44 136 -80 135 -81 -1 -1 -244
-141 -540 -312 l-538 -310 -161 94 c-89 52 -165 97 -170 102 -4 4 232 148 525
319 l532 312 40 -22 c22 -13 102 -58 177 -102z m970 -383 c307 -176 308 -177
308 -210 0 -19 -4 -32 -8 -30 -5 2 -150 85 -324 186 -174 100 -324 182 -335
182 -10 0 -44 -16 -76 -35 -32 -19 -63 -35 -70 -35 -7 0 -41 17 -77 38 l-65
38 -3 121 -3 122 173 -100 c95 -55 311 -179 480 -277z m-2515 -78 c280 -163
509 -297 510 -298 1 -1 -86 -51 -192 -113 l-193 -111 -511 296 -511 295 102
60 c57 33 144 84 193 113 50 29 91 53 92 54 2 0 231 -133 510 -296z m-1170
124 l92 -54 -310 -179 c-171 -98 -315 -187 -320 -197 -6 -11 -6 -25 -1 -34 8
-14 915 -545 1100 -645 64 -34 13 -56 417 177 165 95 305 174 311 176 15 4
304 -163 299 -173 -3 -4 -241 -143 -531 -309 -418 -241 -529 -301 -544 -294
-39 18 -1789 1029 -1790 1034 0 3 240 143 532 312 l532 307 61 -34 c33 -18
102 -58 152 -87z m4849 -39 c115 -66 215 -124 223 -128 9 -5 -18 -26 -84 -64
-53 -32 -101 -57 -106 -57 -5 0 -109 57 -230 127 -150 86 -217 129 -210 136
16 16 175 107 187 107 6 0 105 -54 220 -121z m-1806 21 c22 -11 40 -24 40 -28
0 -7 -30 -25 -82 -50 -5 -2 -8 19 -8 47 0 28 2 51 5 51 3 0 24 -9 45 -20z
m688 -230 c215 -124 391 -227 391 -230 1 -7 -356 -210 -368 -210 -6 0 -104 54
-218 120 -115 66 -218 120 -230 120 -11 0 -282 -151 -601 -335 l-581 -335
-360 207 c-199 114 -361 210 -361 214 0 8 351 212 366 212 6 0 90 -45 186
-101 96 -56 182 -102 191 -102 13 0 695 388 1052 598 66 39 125 70 131 69 6
-1 187 -103 402 -227z m1047 -97 c-1 -11 -177 -113 -195 -112 -8 0 -55 24
-105 53 l-90 52 -3 122 -3 121 198 -114 c109 -63 198 -118 198 -122z m-3911
-162 c235 -136 322 -191 313 -198 -20 -17 -555 -323 -563 -323 -4 0 -92 48
-196 108 l-188 107 0 337 0 337 154 -89 c85 -49 301 -175 480 -279z m4489
-163 c260 -149 476 -274 480 -278 7 -6 -180 -120 -196 -120 -7 0 -940 540
-950 549 -6 6 175 120 191 121 2 0 215 -122 475 -272z m-4873 -1600 c0 -357
-2 -648 -4 -648 -2 0 -409 233 -903 519 l-898 518 -3 651 -2 650 905 -521 904
-522 1 -647z m3031 1606 c82 -48 148 -88 147 -89 -2 -2 -108 -62 -300 -172 -5
-2 -8 75 -8 171 0 97 2 176 5 176 3 0 73 -39 156 -86z m1587 -202 c238 -138
433 -254 434 -258 0 -11 -183 -116 -196 -112 -7 2 -168 93 -359 203 l-347 200
0 118 c0 109 1 117 18 108 9 -5 212 -122 450 -259z m-1172 -43 c96 -56 174
-103 172 -104 -2 -2 -245 -142 -540 -313 l-537 -309 -175 100 c-96 56 -173
103 -170 106 5 6 1067 620 1072 621 2 0 82 -46 178 -101z m-2016 -196 l170
-97 0 -654 0 -654 -42 24 c-24 13 -103 57 -175 98 l-133 75 0 653 c0 358 2
652 5 652 3 0 82 -44 175 -97z m3857 -144 c68 -39 123 -72 121 -74 -2 -2 -86
-51 -187 -109 l-183 -106 -125 71 c-82 47 -121 75 -115 81 14 14 345 206 356
207 5 1 65 -31 133 -70z m-297 -481 c0 -65 -3 -118 -7 -118 -5 1 -60 31 -123
69 l-115 67 -3 121 -3 121 126 -71 125 -72 0 -117z m-2652 102 l162 -93 0
-648 c0 -357 -3 -649 -7 -649 -5 0 -87 46 -183 103 l-175 102 -3 654 -2 653
22 -14 c13 -8 96 -56 186 -108z"/>
<path d="M1005 4851 l-240 -139 -3 -200 -2 -200 25 -20 c25 -20 25 -20 25
-185 l0 -166 27 -19 c16 -10 187 -110 380 -221 l353 -203 2 -171 3 -171 280
-162 c154 -90 288 -163 298 -163 10 -1 81 35 157 80 l139 80 520 -300 c287
-166 530 -301 542 -301 12 0 83 35 159 78 l137 79 161 -94 c89 -51 168 -93
175 -93 6 0 122 65 257 143 l245 142 3 194 c2 131 -1 198 -9 207 -18 22 -356
214 -377 214 -10 0 -120 -58 -243 -130 -200 -115 -226 -128 -244 -116 -103 66
-1019 586 -1032 586 -10 0 -81 -36 -157 -80 l-138 -80 -104 61 -104 61 -2 171
-3 171 -348 200 c-382 220 -357 198 -277 249 l35 23 3 201 2 201 -184 106
c-101 58 -192 106 -203 106 -10 0 -126 -63 -258 -139z m423 -48 c45 -26 82
-49 82 -53 0 -8 -352 -210 -367 -210 -18 0 -244 133 -241 142 2 4 84 54 183
112 l180 104 40 -24 c22 -13 77 -45 123 -71z m-476 -263 c53 -30 95 -57 92
-61 -2 -4 -30 -22 -62 -39 -31 -18 -76 -44 -99 -57 l-43 -25 0 122 c0 67 4
120 8 118 4 -1 51 -28 104 -58z m675 -390 c260 -149 471 -275 468 -280 -12
-19 -187 -111 -202 -106 -33 13 -943 541 -943 548 0 8 192 118 199 114 3 -2
219 -126 478 -276z m-288 -172 c240 -138 444 -257 454 -263 16 -11 7 -19 -80
-70 -54 -32 -102 -58 -108 -58 -5 0 -169 91 -362 203 l-353 203 0 119 c0 65 3
118 6 118 3 0 202 -113 443 -252z m794 -458 c119 -69 217 -127 217 -130 0 -8
-182 -113 -195 -113 -5 0 -110 57 -233 128 l-222 128 97 58 c54 32 103 57 109
56 6 -1 108 -58 227 -127z m1142 -320 c231 -133 424 -245 428 -250 7 -6 -138
-98 -185 -118 -9 -4 -968 547 -968 557 0 3 43 32 96 63 l97 56 56 -33 c31 -18
245 -142 476 -275z m-1388 123 l223 -128 0 -124 0 -123 -22 14 c-13 8 -104 61
-203 118 -263 151 -235 120 -235 256 0 63 3 114 7 114 5 0 108 -57 230 -127z
m1094 -292 l484 -280 3 -120 c1 -67 1 -121 -2 -121 -3 0 -222 125 -488 279
l-483 279 -3 121 c-1 66 -1 121 1 121 2 0 222 -126 488 -279z m1529 -11 c0 -8
-356 -210 -370 -210 -10 0 -147 76 -228 127 -23 14 -19 18 163 123 l187 108
124 -72 c68 -39 124 -73 124 -76z m-532 -225 l122 -70 0 -117 c0 -65 -3 -118
-7 -118 -5 0 -62 31 -128 69 l-120 68 -3 123 c-1 67 1 120 6 118 5 -1 63 -34
130 -73z"/>
</g>
</svg>
