<svg width="258" height="200" viewBox="0 0 258 200" fill="none" xmlns="http://www.w3.org/2000/svg">
  <path fill-rule="evenodd" clip-rule="evenodd"
    d="M152.78 0.177097C153.189 -0.059025 153.692 -0.0590327 154.101 0.177077L163.338 5.51306L171.362 0.877717C171.771 0.641604 172.274 0.641621 172.683 0.877763L203.424 18.6388L211.444 14.0049C211.853 13.7688 212.357 13.7688 212.766 14.0049L228.859 23.3037C229.268 23.5398 229.519 23.9762 229.519 24.4485L229.519 33.715L251.305 46.3006C251.714 46.5368 251.966 46.9732 251.966 47.4455L251.966 56.7171L252.795 57.1963C253.204 57.4324 253.456 57.8688 253.456 58.3412L253.456 68.4807C253.456 68.953 253.204 69.3894 252.795 69.6255L239.057 77.5626C238.649 77.7988 238.145 77.7988 237.736 77.5626L227.563 71.6838C227.154 71.4476 226.902 71.0113 226.902 70.539L226.902 60.3995C226.902 59.9272 227.154 59.4908 227.563 59.2546L230.543 57.5327L210.174 45.7653C209.765 45.5292 209.513 45.0928 209.513 44.6205L209.513 35.349L203.424 31.8313L195.401 36.4666C194.993 36.7027 194.489 36.7027 194.08 36.4666L163.616 18.8656L163.19 19.1115L161.868 16.8223L162.294 16.5761L162.294 9.4893L150.539 16.2814C150.131 16.5176 149.627 16.5176 149.218 16.2814L139.043 10.4026L139.443 9.70987H138.383V9.25776C138.383 8.78545 138.635 8.34903 139.044 8.11288L152.78 0.177097ZM142.346 9.25782L149.879 13.61L160.973 7.19973L153.44 2.84842L142.346 9.25782ZM164.936 9.48918L164.936 16.5757L193.42 33.032V25.9454L164.936 9.48918ZM196.062 25.9454V33.032L202.103 29.5416V22.4551L196.062 25.9454ZM204.745 22.4551V29.5416L210.743 33.0069L216.877 29.464L204.745 22.4551ZM222.161 29.4639L226.877 32.1886L226.877 26.7385L222.161 29.4639ZM225.556 24.4486L212.105 16.6763L206.066 20.1653L219.519 27.9375L225.556 24.4486ZM219.519 30.9905L213.476 34.481L241.96 50.9372L248.002 47.4456L219.519 30.9905ZM249.323 49.7354L244.602 52.4635L249.323 55.1909L249.323 49.7354ZM249.492 58.3413L241.96 53.9901L230.865 60.3996L238.397 64.7518L249.492 58.3413ZM237.076 67.0415L229.544 62.6894L229.544 69.7758L237.076 74.1279L237.076 67.0415ZM239.718 74.1281L250.814 67.7175L250.814 60.6309L239.718 67.0415L239.718 74.1281ZM212.155 36.8755L212.155 43.8572L233.186 56.0062L239.227 52.516L212.155 36.8755ZM200.782 20.1653L172.023 3.54908L165.98 7.03941L194.741 23.6557L200.782 20.1653ZM17.0549 78.4285C17.4637 78.1923 17.9673 78.1923 18.3761 78.4285L28.5496 84.3074C28.9583 84.5435 29.2101 84.9799 29.2101 85.4522V95.7014C29.2101 96.1737 28.9583 96.6101 28.5495 96.8462L25.6643 98.5132L45.9387 110.226C46.3474 110.462 46.5992 110.898 46.5992 111.371V120.643L52.688 124.16L60.7109 119.525C61.1196 119.288 61.6232 119.288 62.0319 119.525L92.497 137.126L105.573 129.57C105.982 129.334 106.485 129.334 106.894 129.57L117.069 135.449C117.478 135.685 117.729 136.122 117.729 136.594V146.843C117.729 147.315 117.478 147.752 117.069 147.988L103.332 155.924C102.924 156.16 102.42 156.16 102.011 155.924L92.7744 150.588L84.7502 155.223C84.3415 155.459 83.8379 155.459 83.4292 155.223L52.6881 137.462L44.6679 142.096C44.2591 142.332 43.7555 142.332 43.3467 142.096L27.2535 132.797C26.8448 132.561 26.593 132.125 26.593 131.652V122.386L4.80738 109.8C4.39862 109.564 4.14681 109.128 4.14681 108.655V99.3838L3.31727 98.9046C2.90848 98.6685 2.65665 98.232 2.65665 97.7597V87.5105C2.65665 87.0382 2.90844 86.6018 3.31717 86.3656L17.0549 78.4285ZM6.78894 100.696V107.892L27.7242 119.986L33.9513 116.389L6.78894 100.696ZM36.5935 114.862L8.11013 98.4062L14.1525 94.9157L42.6361 111.371L36.5935 114.862ZM43.9571 113.661L39.2356 116.389L43.9571 119.116V113.661ZM16.7946 93.3891L23.0221 96.9868L26.5679 94.9382V87.742L16.7946 93.3891ZM25.2472 85.4521L14.1525 91.8628L6.61977 87.5105L17.7154 81.0999L25.2472 85.4521ZM5.29878 89.8002V96.9774L11.5104 93.3892L5.29878 89.8002ZM36.5935 117.915L30.5562 121.403L44.0073 129.175L50.0458 125.686L36.5935 117.915ZM51.367 127.976L45.3284 131.465V138.661L51.367 135.172V127.976ZM54.0091 135.172L82.7687 151.789V144.592L54.0091 127.976V135.172ZM55.3301 125.686L84.0898 142.303L90.1319 138.812L61.3714 122.196L55.3301 125.686ZM91.279 141.202L85.4108 144.592V151.789L91.279 148.399V141.202ZM93.9211 148.197L101.351 152.489V145.293L93.9211 141.001V148.197ZM103.993 145.293V152.489L115.087 146.08V138.884L103.993 145.293ZM113.766 136.594L102.672 143.003L95.1394 138.652L106.233 132.242L113.766 136.594ZM42.6863 138.661L29.2352 130.889V123.693L42.6863 131.465V138.661Z"
    fill="black" />
  <path d="M90.9897 66.5731L34.8246 33.9495V75.7132L90.9897 108.337V66.5731Z" fill="#F9703E" />
  <path d="M80.7699 20.9453L80.7712 44.1908L93.5512 51.4881L113.684 39.8706L80.7699 20.9453Z"
    fill="#F9703E" />
  <path d="M164.656 69.3188V110.941L199.532 90.8114V49.2487L164.656 69.3188Z" fill="black" />
  <path d="M90.9897 66.7185V108.341L125.866 88.2111L125.258 46.9987L90.9897 66.7185Z" fill="black" />
  <path
    d="M138.054 53.7711V95.749L151.34 88.108L151.339 61.6249L172.991 49.1165V33.8345L138.054 53.7711Z"
    fill="black" />
  <path d="M127.655 31.8L162.529 11.6505V24.4908L138.766 38.2195L127.655 31.8Z" fill="black" />
  <path d="M60.6474 32.4781L80.7699 20.9453L80.7712 44.1908L60.6474 32.4781Z" fill="black" />
  <path d="M186.215 41.4755L200.184 33.4048V49.6267L186.215 41.4755Z" fill="black" />
  <path d="M102.672 144.53V154.558L116.638 146.704L116.408 136.594L102.672 144.53Z" fill="black" />
  <path d="M84.0897 143.829V154.078L92.6 149.162V138.913L84.0897 143.829Z" fill="black" />
  <path d="M44.0073 130.702L52.688 125.686V135.936L44.0073 140.951V130.702Z" fill="black" />
  <path d="M36.8101 116.263L45.2781 111.371V121.181L36.8101 116.263Z" fill="black" />
  <path d="M14.4458 93.3892L27.889 85.4521V95.7014L23.1107 98.5648L14.4458 93.3892Z" fill="black" />
  <path d="M238.397 66.2783V76.4178L252.135 68.4807L251.848 58.5077L238.397 66.2783Z" fill="black" />
  <path d="M242.192 52.3288L250.644 47.4455V57.585L242.192 52.3288Z" fill="black" />
  <path
    d="M195.09 25.1822L203.169 20.3121L203.424 30.3048L199.258 32.7121L194.817 30.3048L195.09 25.1822Z"
    fill="black" />
  <path d="M219.519 29.4641L227.984 24.5728L228.198 34.588L219.519 29.4641Z" fill="black" />
  <path d="M159.479 9.70985L163.315 7.37393L163.5 12.1529L159.479 9.70985Z" fill="black" />
  <path d="M151.339 61.625L186.215 41.4755L199.532 49.1694L164.656 69.3188L151.339 61.625Z"
    fill="#F9703E" />
  <path
    d="M138.054 53.7711L172.991 33.8345L186.215 41.4755L200.184 33.4049L173.642 18.07L138.766 38.2195L127.655 31.8L113.684 39.8706L138.054 53.7711Z"
    fill="#F9703E" />
  <path d="M162.529 11.6505L149.213 3.95667L114.68 24.1987L127.655 31.8L162.529 11.6505Z"
    fill="#F9703E" />
  <path fill-rule="evenodd" clip-rule="evenodd"
    d="M148.545 2.81597C148.955 2.57574 149.462 2.57415 149.873 2.8118L163.19 10.5057C163.599 10.7418 163.85 11.1782 163.85 11.6505V22.2444L172.977 16.9275C173.387 16.689 173.892 16.6881 174.303 16.9251L200.844 32.26C201.253 32.4961 201.505 32.9326 201.505 33.4048V74.9927C201.505 75.4613 201.257 75.8947 200.853 76.1322V90.8114C200.853 91.2839 200.601 91.7205 200.192 91.9565L165.316 112.086C164.907 112.323 164.402 112.322 163.993 112.085L150.676 104.355C150.268 104.119 150.017 103.683 150.017 103.211L150.019 90.3978L138.775 96.8938C138.369 97.1287 137.868 97.13 137.46 96.8973L125.262 89.9359L91.6493 109.323C91.2406 109.559 90.7373 109.559 90.3288 109.323L34.1637 76.8579C33.7551 76.6217 33.5034 76.1854 33.5034 75.7132V33.9574C33.5034 33.4852 33.7552 33.0489 34.1638 32.8127L68.4705 12.9845C68.8793 12.7482 69.383 12.7482 69.7918 12.9844L80.7698 19.3275L94.3067 11.5051C94.7179 11.2675 95.225 11.269 95.6348 11.5091L114.68 22.6667L148.545 2.81597ZM149.218 5.48591L115.348 25.3393C114.936 25.581 114.425 25.5811 114.013 25.3395L94.9628 14.1791L81.4305 21.9989C81.0217 22.2351 80.518 22.2351 80.1093 21.9989L69.1314 15.6558L36.1456 34.7205V74.9501L90.9903 106.652L124.598 87.2667C125.005 87.0323 125.505 87.0311 125.912 87.2637L138.111 94.2248L150.679 86.9631C151.088 86.727 151.592 86.727 152 86.9631C152.409 87.1993 152.661 87.6358 152.661 88.1081L152.66 102.45L164.658 109.414L198.211 90.0478V75.3721C198.211 74.9035 198.459 74.4701 198.863 74.2327V34.1681L173.645 19.5981L163.194 25.6862C162.785 25.9242 162.281 25.9256 161.871 25.6897C161.461 25.4539 161.208 25.0168 161.208 24.5437V12.4137L149.218 5.48591Z"
    fill="black" />
  <path fill-rule="evenodd" clip-rule="evenodd"
    d="M201.328 32.7438C201.692 33.3761 201.476 34.1846 200.844 34.5497L186.875 42.6203C186.466 42.8565 185.963 42.8565 185.554 42.6203L172.991 35.361L138.775 55.1288C138.369 55.3637 137.868 55.365 137.46 55.1323L125.262 48.1721L91.6493 67.5598C91.2406 67.7955 90.7373 67.7953 90.3288 67.5591L34.1637 35.0942C33.532 34.729 33.3156 33.9205 33.6806 33.2883C34.0455 32.656 34.8535 32.4396 35.4853 32.8048L90.9903 64.8882L124.598 45.503C125.005 45.2686 125.505 45.2674 125.912 45.4999L138.111 52.4598L172.33 32.6896C172.739 32.4535 173.243 32.4535 173.651 32.6896L186.215 39.949L199.523 32.26C200.155 31.8949 200.963 32.1116 201.328 32.7438Z"
    fill="black" />
  <path fill-rule="evenodd" clip-rule="evenodd"
    d="M185.554 40.3306C185.963 40.0945 186.466 40.0945 186.875 40.3306L200.193 48.0245C200.602 48.2606 200.853 48.697 200.853 49.1693C200.853 49.6416 200.602 50.0781 200.193 50.3142L165.317 70.4637C164.908 70.6998 164.404 70.6998 163.996 70.4637L150.678 62.7698C150.269 62.5337 150.017 62.0973 150.017 61.625C150.017 61.1527 150.269 60.7162 150.678 60.4801L185.554 40.3306ZM186.215 43.0019L153.981 61.6249L164.656 67.7923L196.89 49.1694L186.215 43.0019Z"
    fill="black" />
  <path fill-rule="evenodd" clip-rule="evenodd"
    d="M163.673 10.9897C164.038 11.622 163.822 12.4305 163.19 12.7955L116.256 39.9013L125.92 45.5045C126.552 45.8705 126.767 46.6794 126.401 47.3111C126.035 47.9428 125.227 48.1582 124.596 47.7922L113.616 41.4261L94.2115 52.633C93.8028 52.8691 93.2993 52.869 92.8906 52.6329L59.9869 33.623C59.5781 33.3868 59.3263 32.9504 59.3263 32.4781C59.3263 32.0058 59.5782 31.5694 59.9869 31.3332L80.1094 19.7092C80.5187 19.4727 81.0232 19.4731 81.4321 19.7102L113.619 38.372L161.869 10.5055C162.501 10.1406 163.309 10.3573 163.673 10.9897ZM110.978 39.8968L80.7686 22.3812L63.2897 32.4782L93.5513 49.9617L110.978 39.8968Z"
    fill="black" />
  <path fill-rule="evenodd" clip-rule="evenodd"
    d="M113.538 23.5339C113.905 22.9028 114.714 22.6888 115.345 23.056L138.77 36.6923L161.871 23.3977C162.503 23.0337 163.311 23.2517 163.674 23.8846C164.038 24.5175 163.82 25.3257 163.188 25.6897L139.425 39.3654C139.015 39.6013 138.51 39.6 138.102 39.3622L114.016 25.3413C113.385 24.9742 113.171 24.165 113.538 23.5339Z"
    fill="black" />
  <path fill-rule="evenodd" clip-rule="evenodd"
    d="M125.258 45.3264C125.988 45.3264 126.579 45.9183 126.579 46.6484V88.412C126.579 89.1421 125.988 89.734 125.258 89.734C124.528 89.734 123.937 89.1421 123.937 88.412V46.6484C123.937 45.9183 124.528 45.3264 125.258 45.3264Z"
    fill="black" />
  <path fill-rule="evenodd" clip-rule="evenodd"
    d="M138.115 52.662C138.844 52.662 139.436 53.2539 139.436 53.984V95.749C139.436 96.4791 138.844 97.0709 138.115 97.0709C137.385 97.0709 136.794 96.4791 136.794 95.749V53.984C136.794 53.2539 137.385 52.662 138.115 52.662Z"
    fill="black" />
  <path fill-rule="evenodd" clip-rule="evenodd"
    d="M90.9896 65.0925C91.7192 65.0925 92.3106 65.6844 92.3106 66.4145V108.178C92.3106 108.908 91.7192 109.5 90.9896 109.5C90.26 109.5 89.6685 108.908 89.6685 108.178V66.4145C89.6685 65.6844 90.26 65.0925 90.9896 65.0925Z"
    fill="black" />
  <path fill-rule="evenodd" clip-rule="evenodd"
    d="M80.7698 19.6233C81.4994 19.6233 82.0909 20.2152 82.0909 20.9453V44.0586C82.0909 44.7887 81.4994 45.3806 80.7698 45.3806C80.0402 45.3806 79.4488 44.7887 79.4488 44.0586V20.9453C79.4488 20.2152 80.0402 19.6233 80.7698 19.6233Z"
    fill="black" />
  <path fill-rule="evenodd" clip-rule="evenodd"
    d="M151.339 60.303C152.068 60.303 152.66 60.8948 152.66 61.6249V88.108C152.66 88.8381 152.068 89.4299 151.339 89.4299C150.609 89.4299 150.017 88.8381 150.017 88.108V61.6249C150.017 60.8948 150.609 60.303 151.339 60.303Z"
    fill="black" />
  <path fill-rule="evenodd" clip-rule="evenodd"
    d="M164.656 67.9969C165.386 67.9969 165.977 68.5887 165.977 69.3188V110.941C165.977 111.671 165.386 112.263 164.656 112.263C163.927 112.263 163.335 111.671 163.335 110.941V69.3188C163.335 68.5887 163.927 67.9969 164.656 67.9969Z"
    fill="black" />
  <path fill-rule="evenodd" clip-rule="evenodd"
    d="M172.991 32.5125C173.72 32.5125 174.312 33.1044 174.312 33.8345V49.1165C174.312 49.8466 173.72 50.4384 172.991 50.4384C172.261 50.4384 171.67 49.8466 171.67 49.1165V33.8345C171.67 33.1044 172.261 32.5125 172.991 32.5125Z"
    fill="black" />
  <path fill-rule="evenodd" clip-rule="evenodd"
    d="M199.532 48.5084C199.897 48.5084 200.193 48.8043 200.193 49.1693V75.7621C200.193 76.1271 199.897 76.4231 199.532 76.4231C199.168 76.4231 198.872 76.1271 198.872 75.7621V49.1693C198.872 48.8043 199.168 48.5084 199.532 48.5084Z"
    fill="black" />
  <path d="M6.57759 193.61V177.531H14.965V171.844H0.660538V199.298H14.965V193.61H6.57759Z"
    fill="#F9703E" />
  <path d="M14.965 177.531V193.61H20.8834V177.531H14.965Z" fill="#F9703E" />
  <path
    d="M30.7596 188.473V193.61H44.5555V199.298H30.7596V193.65H24.8413V171.844H39.1458V177.531H30.7583V182.748H39.1458V177.531H45.0641V188.473H30.7596Z"
    fill="#F9703E" />
  <path
    d="M69.4417 171.844V193.61H63.5234V199.298H54.6656V193.61H48.7473V171.844H54.6656V193.61H63.5234V171.844H69.4417Z"
    fill="#F9703E" />
  <path fill-rule="evenodd" clip-rule="evenodd"
    d="M0 171.844C0 171.479 0.295731 171.183 0.660533 171.183H14.965C15.3298 171.183 15.6256 171.479 15.6256 171.844V176.87H20.8834C21.2482 176.87 21.5439 177.166 21.5439 177.531V193.61C21.5439 193.976 21.2482 194.271 20.8834 194.271H15.6256V199.298C15.6256 199.663 15.3298 199.959 14.965 199.959H0.660533C0.295731 199.959 0 199.663 0 199.298V171.844ZM15.6256 192.949H20.2229V178.192H15.6256V192.949ZM14.3045 178.192V192.949H7.23811V178.192H14.3045ZM14.3045 176.87H6.57758C6.21278 176.87 5.91705 177.166 5.91705 177.531V193.61C5.91705 193.976 6.21278 194.271 6.57758 194.271H14.3045V198.637H1.32107V172.505H14.3045V176.87ZM24.1807 171.844C24.1807 171.479 24.4765 171.183 24.8413 171.183H39.1458C39.5106 171.183 39.8063 171.479 39.8063 171.844V176.87H45.0641C45.4289 176.87 45.7247 177.166 45.7247 177.531V188.473C45.7247 188.838 45.4289 189.134 45.0641 189.134H31.4202V192.949H44.5555C44.9203 192.949 45.2161 193.245 45.2161 193.61V199.298C45.2161 199.663 44.9203 199.959 44.5555 199.959H30.7596C30.3948 199.959 30.0991 199.663 30.0991 199.298V194.311H24.8413C24.4765 194.311 24.1807 194.015 24.1807 193.65V171.844ZM30.0991 192.989H25.5018V172.505H38.4852V176.87H30.7583C30.3935 176.87 30.0978 177.166 30.0978 177.531V182.748C30.0978 183.113 30.3935 183.409 30.7583 183.409H39.1458C39.5106 183.409 39.8063 183.113 39.8063 182.748V178.192H44.4036V187.812H30.7596C30.3948 187.812 30.0991 188.108 30.0991 188.473V192.989ZM38.4852 178.192H31.4188V182.087H38.4852V178.192ZM31.4202 194.271V198.637H43.895V194.271H31.4202ZM48.0867 171.844C48.0867 171.479 48.3825 171.183 48.7473 171.183H54.6656C55.0304 171.183 55.3262 171.479 55.3262 171.844V192.949H62.8628V171.844C62.8628 171.479 63.1586 171.183 63.5234 171.183H69.4417C69.8065 171.183 70.1023 171.479 70.1023 171.844V193.61C70.1023 193.976 69.8065 194.271 69.4417 194.271H64.1839V199.298C64.1839 199.663 63.8882 199.959 63.5234 199.959H54.6656C54.3008 199.959 54.0051 199.663 54.0051 199.298V194.271H48.7473C48.3825 194.271 48.0867 193.976 48.0867 193.61V171.844ZM54.0051 192.949V172.505H49.4078V192.949H54.0051ZM55.3262 194.271V198.637H62.8628V194.271H55.3262ZM64.1839 192.949H68.7812V172.505H64.1839V192.949Z"
    fill="#F9703E" />
  <path
    d="M103.697 182.276V193.61H97.7786V199.298H83.0038V193.61H97.7786V187.963H83.0038V177.531H88.9222V171.844H103.697V177.531H88.9222V182.277H103.697V182.276Z"
    fill="black" />
  <path
    d="M128.192 177.531V199.298H113.417V193.61H107.499V171.844H122.274V177.531H113.416V193.61H122.274V177.531H128.192Z"
    fill="black" />
  <path
    d="M152.883 171.844V199.298H138.108V193.61H132.19V171.844H138.108V193.61H146.966V171.844H152.884H152.883Z"
    fill="black" />
  <path
    d="M173.184 193.61V199.298H164.523V193.69H158.604V185.729H156.331V180.042H158.604V171.924H164.523V180.042H169.853V185.729H164.523V193.612H173.184V193.61Z"
    fill="black" />
  <path
    d="M175.967 177.687V171.962H181.886V177.687H175.967ZM175.967 199.296V180.118H181.886V199.296H175.967Z"
    fill="black" />
  <path
    d="M201.521 177.531H192.272V199.298H186.353V171.844H201.521V177.531ZM201.521 199.298V177.531H207.439V199.298H201.521Z"
    fill="black" />
  <path
    d="M217.746 180.12H226.604V185.845H217.746V199.298H211.827V171.844H217.746V180.12ZM226.604 199.298V185.845H232.522V199.298H226.604Z"
    fill="black" />
  <path
    d="M256.35 177.531V199.298H241.575V193.61H235.657V171.844H250.432V177.531H241.574V193.61H250.432V177.531H256.35Z"
    fill="black" />
  <path fill-rule="evenodd" clip-rule="evenodd"
    d="M88.2616 171.844C88.2616 171.479 88.5574 171.183 88.9222 171.183H103.697C104.062 171.183 104.357 171.479 104.357 171.844V177.531C104.357 177.896 104.062 178.192 103.697 178.192H89.5827V181.616H103.655C103.669 181.615 103.683 181.615 103.697 181.615C104.062 181.615 104.357 181.911 104.357 182.276V193.61C104.357 193.976 104.062 194.271 103.697 194.271H98.4391V199.298C98.4391 199.663 98.1434 199.959 97.7786 199.959H83.0038C82.639 199.959 82.3433 199.663 82.3433 199.298V193.61C82.3433 193.245 82.639 192.949 83.0038 192.949H97.1181V188.624H83.0038C82.639 188.624 82.3433 188.328 82.3433 187.963V177.531C82.3433 177.166 82.639 176.87 83.0038 176.87H88.2616V171.844ZM89.5827 176.87H103.036V172.505H89.5827V176.87ZM88.2616 178.192H83.6643V187.302H97.7786C98.1434 187.302 98.4391 187.598 98.4391 187.963V192.949H103.036V182.938H88.9222C88.5574 182.938 88.2616 182.642 88.2616 182.277V178.192ZM97.1181 194.271H83.6643V198.637H97.1181V194.271ZM106.838 171.844C106.838 171.479 107.134 171.183 107.499 171.183H122.274C122.639 171.183 122.934 171.479 122.934 171.844V176.87H128.192C128.557 176.87 128.853 177.166 128.853 177.531V199.298C128.853 199.663 128.557 199.959 128.192 199.959H113.417C113.053 199.959 112.757 199.663 112.757 199.298V194.271H107.499C107.134 194.271 106.838 193.976 106.838 193.61V171.844ZM114.078 194.271V198.637H127.532V178.192H122.934V193.61C122.934 193.976 122.639 194.271 122.274 194.271H114.078ZM121.613 176.87V172.505H108.16V192.949H112.756V177.531C112.756 177.166 113.051 176.87 113.416 176.87H121.613ZM121.613 178.192V192.949H114.077V178.192H121.613ZM131.529 171.844C131.529 171.479 131.825 171.183 132.19 171.183H138.108C138.473 171.183 138.769 171.479 138.769 171.844V192.949H146.305V171.844C146.305 171.479 146.601 171.183 146.966 171.183H152.884C153.249 171.183 153.545 171.479 153.545 171.844C153.545 171.858 153.544 171.872 153.543 171.886V199.298C153.543 199.663 153.248 199.959 152.883 199.959H138.108C137.743 199.959 137.448 199.663 137.448 199.298V194.271H132.19C131.825 194.271 131.529 193.976 131.529 193.61V171.844ZM137.448 192.949V172.505H132.85V192.949H137.448ZM138.769 194.271V198.637H152.222V172.505H147.626V193.61C147.626 193.976 147.331 194.271 146.966 194.271H138.769ZM185.693 171.844C185.693 171.479 185.989 171.183 186.353 171.183H201.521C201.885 171.183 202.181 171.479 202.181 171.844V176.87H207.439C207.804 176.87 208.099 177.166 208.099 177.531V199.298C208.099 199.663 207.804 199.959 207.439 199.959H201.521C201.156 199.959 200.86 199.663 200.86 199.298V178.192H192.932V199.298C192.932 199.663 192.637 199.959 192.272 199.959H186.353C185.989 199.959 185.693 199.663 185.693 199.298V171.844ZM200.86 176.87V172.505H187.014V198.637H191.611V177.531C191.611 177.166 191.907 176.87 192.272 176.87H200.86ZM202.181 178.192V198.637H206.778V178.192H202.181ZM211.167 171.844C211.167 171.479 211.463 171.183 211.827 171.183H217.746C218.111 171.183 218.406 171.479 218.406 171.844V179.459H226.604C226.968 179.459 227.264 179.755 227.264 180.12V185.184H232.522C232.887 185.184 233.183 185.48 233.183 185.845V199.298C233.183 199.663 232.887 199.959 232.522 199.959H226.604C226.239 199.959 225.943 199.663 225.943 199.298V186.506H218.406V199.298C218.406 199.663 218.111 199.959 217.746 199.959H211.827C211.463 199.959 211.167 199.663 211.167 199.298V171.844ZM225.943 185.184V180.781H217.746C217.381 180.781 217.085 180.485 217.085 180.12V172.505H212.488V198.637H217.085V185.845C217.085 185.48 217.381 185.184 217.746 185.184H225.943ZM227.264 186.506V198.637H231.861V186.506H227.264ZM234.996 171.844C234.996 171.479 235.292 171.183 235.657 171.183H250.432C250.796 171.183 251.092 171.479 251.092 171.844V176.87H256.35C256.715 176.87 257.011 177.166 257.011 177.531V199.298C257.011 199.663 256.715 199.959 256.35 199.959H241.575C241.21 199.959 240.915 199.663 240.915 199.298V194.271H235.657C235.292 194.271 234.996 193.976 234.996 193.61V171.844ZM242.236 194.271V198.637H255.69V178.192H251.092V193.61C251.092 193.976 250.796 194.271 250.432 194.271H242.236ZM249.771 176.87V172.505H236.317V192.949H240.913V177.531C240.913 177.166 241.209 176.87 241.574 176.87H249.771ZM249.771 178.192V192.949H242.234V178.192H249.771ZM157.944 171.924C157.944 171.558 158.24 171.263 158.604 171.263H164.523C164.888 171.263 165.183 171.558 165.183 171.924V179.381H169.853C170.218 179.381 170.514 179.677 170.514 180.042V185.729C170.514 186.094 170.218 186.39 169.853 186.39H165.183V192.951H173.142C173.155 192.95 173.17 192.949 173.184 192.949C173.548 192.949 173.844 193.245 173.844 193.61V199.298C173.844 199.663 173.548 199.959 173.184 199.959H164.523C164.158 199.959 163.862 199.663 163.862 199.298V194.351H158.604C158.24 194.351 157.944 194.055 157.944 193.69V186.39H156.331C155.966 186.39 155.67 186.094 155.67 185.729V180.042C155.67 179.677 155.966 179.381 156.331 179.381H157.944V171.924ZM163.862 193.029H159.265V185.729C159.265 185.364 158.969 185.068 158.604 185.068H156.991V180.703H158.604C158.969 180.703 159.265 180.407 159.265 180.042V172.585H163.862V180.042C163.862 180.407 164.158 180.703 164.523 180.703H169.193V185.068H164.523C164.158 185.068 163.862 185.364 163.862 185.729V193.029ZM165.183 194.273V198.637H172.523V194.273H165.183ZM175.307 171.962C175.307 171.597 175.602 171.301 175.967 171.301H181.886C182.25 171.301 182.546 171.597 182.546 171.962V177.687C182.546 178.052 182.25 178.348 181.886 178.348H175.967C175.602 178.348 175.307 178.052 175.307 177.687V171.962ZM176.628 172.623V177.026H181.225V172.623H176.628ZM175.307 180.118C175.307 179.753 175.602 179.457 175.967 179.457H181.886C182.25 179.457 182.546 179.753 182.546 180.118V199.296C182.546 199.661 182.25 199.957 181.886 199.957H175.967C175.602 199.957 175.307 199.661 175.307 199.296V180.118ZM176.628 180.779V198.635H181.225V180.779H176.628Z"
    fill="black" />
</svg>
  